<?xml version="1.0" encoding="UTF-8"?><svg id="Layer_1" xmlns="http://www.w3.org/2000/svg" viewBox="0 0 60 60"><path d="M30,0C13.43,0,0,13.43,0,30s13.43,30,30,30,30-13.43,30-30S46.57,0,30,0Z" style="fill:#d9072d;"/><path d="M37.06,43.88c0,3.9-3.16,7.06-7.06,7.06s-7.06-3.16-7.06-7.06c0,0,14.12,0,14.12,0Z" style="fill:#fff;"/><path d="M42.54,21.09s-.09,0-.14,0h-24.81s-.09,0-.14,0c-4.3,0-7.79,3.49-7.79,7.79s3.49,7.79,7.79,7.79,7.79-3.49,7.79-7.79c0-1.42-.39-2.75-1.05-3.9h11.61c-.67,1.15-1.05,2.48-1.05,3.9,0,4.3,3.49,7.79,7.79,7.79s7.79-3.49,7.79-7.79-3.49-7.79-7.79-7.79Z" style="fill:#fff;"/></svg>